<?xml version="1.0" encoding="utf-8"?>
<!-- Generator: Adobe Illustrator 22.0.1, SVG Export Plug-In . SVG Version: 6.00 Build 0)  -->
<svg version="1.1" id="圖層_1" xmlns="http://www.w3.org/2000/svg" xmlns:xlink="http://www.w3.org/1999/xlink" x="0px" y="0px"
	 viewBox="0 0 20 20" style="enable-background:new 0 0 20 20;" xml:space="preserve">
<style type="text/css">
	.st0{fill:#D4D4D4;}
</style>
<g id="圖層_1_1_">
</g>
<g>
	<g>
		<path class="st0" d="M10,0.6c5.2,0,9.4,4.2,9.4,9.4s-4.2,9.4-9.4,9.4S0.6,15.2,0.6,10S4.8,0.6,10,0.6 M10,0C4.5,0,0,4.5,0,10
			s4.5,10,10,10s10-4.5,10-10S15.5,0,10,0L10,0z"/>
	</g>
	<path d="M10,15.7L10,15.7c-3.1,0-5.7-2.6-5.7-5.7l0,0c0-3.1,2.6-5.7,5.7-5.7l0,0c3.1,0,5.7,2.6,5.7,5.7l0,0
		C15.7,13.1,13.1,15.7,10,15.7z"/>
</g>
</svg>
