<?xml version="1.0" encoding="utf-8"?>
<!-- Generator: Adobe Illustrator 22.0.1, SVG Export Plug-In . SVG Version: 6.00 Build 0)  -->
<svg version="1.1" id="圖層_1" xmlns="http://www.w3.org/2000/svg" xmlns:xlink="http://www.w3.org/1999/xlink" x="0px" y="0px"
	 viewBox="0 0 20 20" style="enable-background:new 0 0 20 20;" xml:space="preserve">
<style type="text/css">
	.st0{display:none;}
	.st1{display:inline;}
	.st2{fill:#DDDDDD;}
	.st3{fill:none;stroke:#FFFFFF;stroke-width:4;stroke-linecap:round;stroke-linejoin:round;stroke-miterlimit:10;}
	.st4{fill:#D4D4D4;}
</style>
<g id="圖層_1_1_" class="st0">
	<g class="st1">
		<path class="st2" d="M10,27.5L10,27.5C0.3,27.5-7.5,19.7-7.5,10l0,0C-7.5,0.3,0.3-7.5,10-7.5l0,0c9.7,0,17.5,7.8,17.5,17.5l0,0
			C27.5,19.7,19.7,27.5,10,27.5z"/>
		<polyline class="st3" points="2.8,10.3 8.5,16.4 18.3,4.6 		"/>
	</g>
</g>
<g id="圖層_2_1_">
</g>
<g>
	<path class="st4" d="M10,0.6c5.2,0,9.4,4.2,9.4,9.4s-4.2,9.4-9.4,9.4S0.6,15.2,0.6,10S4.8,0.6,10,0.6 M10,0C4.5,0,0,4.5,0,10
		s4.5,10,10,10s10-4.5,10-10S15.5,0,10,0L10,0z"/>
</g>
</svg>
