<?xml version="1.0" encoding="utf-8"?>
<!-- Generator: Adobe Illustrator 22.0.1, SVG Export Plug-In . SVG Version: 6.00 Build 0)  -->
<svg version="1.1" id="圖層_2" xmlns="http://www.w3.org/2000/svg" xmlns:xlink="http://www.w3.org/1999/xlink" x="0px" y="0px"
	 viewBox="0 0 350 100" style="enable-background:new 0 0 350 100;" xml:space="preserve">
<style type="text/css">
	.st0{fill:#822A2D;}
</style>
<g>
	<path class="st0" d="M39.8,70.1l-9.7,2.5l-7.2-10.9l-2.8,0.7l3,12l-8.7,2.2L6.5,45.3l14.8-3.8c3.3-0.8,6-0.6,8.3,0.6
		c2.2,1.2,3.7,3.2,4.4,6c0.5,1.8,0.5,3.5,0.2,5c-0.3,1.6-1.4,3.1-3.1,4.7L39.8,70.1z M18.5,55.7l3.7-0.9c1.1-0.3,1.9-0.8,2.5-1.4
		c0.5-0.7,0.7-1.5,0.4-2.5c-0.5-2-1.9-2.7-4.1-2.1l-4,1L18.5,55.7z"/>
	<path class="st0" d="M63.7,57.6l1.5,7.6l-21.7,4.3l-6.2-31.7L59,33.5l1.4,7.3l-13,2.5l0.9,4.6l10.5-2.1l1.4,7l-10.5,2.1l1,5.2
		L63.7,57.6z"/>
	<path class="st0" d="M84.3,62.2l-2.6-6L74,57.3l-0.8,6.5l-7.2,1.1l4.2-33.2l9.4-1.4l13.8,30.6L84.3,62.2z M74.5,50.1l4.7-0.7
		l-3.7-8.9L74.5,50.1z"/>
	<path class="st0" d="M95.7,60.6l-3.2-32.1l11.3-1.1c4.9-0.5,8.7,0.7,11.5,3.7c2.8,3,4.4,6.5,4.8,10.7c0.5,4.8-0.4,8.8-2.7,12.1
		c-2.3,3.3-5.6,5.1-9.7,5.5L95.7,60.6z M104,52.3l2.3-0.2c1.5-0.2,2.7-1.1,3.5-2.8c0.9-1.7,1.2-3.9,0.9-6.6c-0.2-2.3-0.9-4.3-2-5.9
		s-2.5-2.3-4.2-2.1l-2.3,0.2L104,52.3z"/>
	<path class="st0" d="M145.8,24.2l-8,19.1l0.8,13.6l-8.7,0.5L129,43.9l-11-18l9.8-0.6l5.8,10.3l4.3-10.9L145.8,24.2z"/>
	<path class="st0" d="M171.8,31.5l0.3,24.5l-8.5,0.1l-0.3-24.5l-6.1,0.1l-0.1-7.7l20.7-0.3l0.1,7.7L171.8,31.5z"/>
	<path class="st0" d="M193.1,56.7c-4.1-0.1-7.5-1.7-10-4.7c-2.5-3.1-3.7-7.1-3.6-12.2c0.1-4.8,1.4-8.8,4-11.9
		c2.6-3.1,6-4.6,10.5-4.5c4.1,0.1,7.4,1.7,9.9,4.7c2.5,3,3.7,7,3.6,12c-0.1,5.1-1.5,9.2-4.2,12.2S197.2,56.8,193.1,56.7z
		 M193.2,49.4c1.5,0,2.6-0.7,3.3-2.1s1.1-4.1,1.2-8c0.1-5.6-1.2-8.4-3.9-8.5c-2.9-0.1-4.5,3.1-4.7,9.5
		C189,46.3,190.4,49.3,193.2,49.4z"/>
	<path class="st0" d="M260.8,28.4l-10.7,31.4l-7.5-0.7L240.1,41l-5.5,17.4l-7.9-0.7L222,24.9l8.4,0.8l2.4,18.9l5.7-18.1l7,0.6
		l2.7,18.9l5.8-18.2L260.8,28.4z"/>
	<path class="st0" d="M283.2,56.5l-1.1,7.6L260.3,61l4.6-31.9l21.8,3.1l-1.1,7.4l-13.1-1.9l-0.7,4.6l10.6,1.5l-1,7.1l-10.6-1.5
		l-0.7,5.2L283.2,56.5z"/>
	<path class="st0" d="M301.2,67.7l-0.4-6.6l-7.7-1.5l-2.9,5.9l-7.2-1.4l14.9-30l9.3,1.8l3,33.4L301.2,67.7z M295.8,53.1l4.7,0.9
		l-0.6-9.6L295.8,53.1z"/>
	<path class="st0" d="M337.7,76.3l-9.7-2.4l-1.2-13l-2.8-0.7l-3,12l-8.7-2.2l7.8-31.3l14.9,3.7c3.3,0.8,5.6,2.3,7,4.4
		c1.4,2.1,1.7,4.6,1,7.4c-0.5,1.8-1.2,3.3-2.2,4.5c-1,1.2-2.7,2.1-5,2.6L337.7,76.3z M325.8,53.5l3.7,0.9c1.1,0.3,2,0.2,2.8-0.1
		c0.8-0.3,1.3-1,1.6-2c0.5-2-0.4-3.3-2.6-3.8l-4-1L325.8,53.5z"/>
</g>
</svg>
